<svg xmlns="http://www.w3.org/2000/svg" xmlns:xlink="http://www.w3.org/1999/xlink" width="203" height="41" viewBox="0 0 203 41">
  <defs>
    <clipPath id="clip-path">
      <rect id="Rectangle_495" data-name="Rectangle 495" width="203" height="41" transform="translate(80 32)" fill="#fff"/>
    </clipPath>
    <clipPath id="clip-path-2">
      <rect id="Rectangle_494" data-name="Rectangle 494" width="203" height="11.235" fill="none"/>
    </clipPath>
  </defs>
  <g id="Mask_Group_11" data-name="Mask Group 11" transform="translate(-80 -32)" clip-path="url(#clip-path)">
    <g id="Group_2940" data-name="Group 2940" transform="translate(80 47)">
      <g id="Group_2939" data-name="Group 2939" transform="translate(0 0)" clip-path="url(#clip-path-2)">
        <path id="Path_93" data-name="Path 93" d="M9.035,1.377V.179H10.42V3.665H9.006A4.052,4.052,0,0,0,7.541,2.034,3.765,3.765,0,0,0,5.5,1.449a3.367,3.367,0,0,0-1.92.567A3.859,3.859,0,0,0,2.262,3.531,4.51,4.51,0,0,0,1.789,5.57a4.446,4.446,0,0,0,.494,2.078,3.985,3.985,0,0,0,1.36,1.522,3.429,3.429,0,0,0,1.927.57,3.606,3.606,0,0,0,2.309-.8A4.536,4.536,0,0,0,9.345,6.681l1.385.736a5.2,5.2,0,0,1-1.988,2.818,5.676,5.676,0,0,1-3.345,1A5.21,5.21,0,0,1,.682,8.453,5.829,5.829,0,0,1,0,5.657,6.106,6.106,0,0,1,.7,2.712a5.008,5.008,0,0,1,1.923-2A5.5,5.5,0,0,1,5.426,0,5.277,5.277,0,0,1,7.382.353,5.567,5.567,0,0,1,9.035,1.377" transform="translate(0 0.001)" fill="#fff"/>
        <path id="Path_94" data-name="Path 94" d="M81.98,5.585a5.879,5.879,0,0,1-.732,2.951,5.078,5.078,0,0,1-2.024,2,6.039,6.039,0,0,1-2.937.7A5.648,5.648,0,0,1,73.4,10.5a5.128,5.128,0,0,1-1.966-2.028,6.017,6.017,0,0,1-.7-2.919,5.708,5.708,0,0,1,.718-2.872A5.137,5.137,0,0,1,73.429.711,5.754,5.754,0,0,1,76.3,0a5.906,5.906,0,0,1,2.966.732,5.169,5.169,0,0,1,2,2,5.736,5.736,0,0,1,.711,2.85m-5.629,4.2a3.533,3.533,0,0,0,2-.584,3.917,3.917,0,0,0,1.36-1.552,4.58,4.58,0,0,0,.48-2.064,4.347,4.347,0,0,0-.509-2.074A3.874,3.874,0,0,0,78.278,2a3.769,3.769,0,0,0-2.02-.552,3.529,3.529,0,0,0-3.273,2.02,4.691,4.691,0,0,0-.465,2.1,4.951,4.951,0,0,0,.465,2.187,3.5,3.5,0,0,0,1.339,1.494,3.808,3.808,0,0,0,2.028.534" transform="translate(-56.372 0)" fill="#fff"/>
        <path id="Path_95" data-name="Path 95" d="M141.685,2.245v8.161h3.572V7.037h1.349v4.727H138.64V10.407h1.4V2.245h-1.4V.889h4.445V2.245Z" transform="translate(-110.496 -0.708)" fill="#fff"/>
        <path id="Path_96" data-name="Path 96" d="M195.21,2.245v8.161h3.572V7.037h1.349v4.727h-7.967V10.407h1.4V2.245h-1.4V.889h4.445V2.245Z" transform="translate(-153.155 -0.708)" fill="#fff"/>
        <path id="Path_97" data-name="Path 97" d="M251.454,2.2l2.944,8.2h1.212v1.357h-4.286V10.406h1.422L251.9,7.938h-3.947l-.844,2.468h1.378v1.357h-4.315V10.406h1.313l2.93-8.2H247.11V.888h5.65V2.2Zm-1.487,0h-.051l-1.537,4.46h3.088Z" transform="translate(-194.606 -0.708)" fill="#fff"/>
        <path id="Path_98" data-name="Path 98" d="M321.615,3.7a2.638,2.638,0,0,1-.339,1.349,2.21,2.21,0,0,1-.989.895,2.807,2.807,0,0,1,1.4,1.014,2.758,2.758,0,0,1,.487,1.634,2.723,2.723,0,0,1-1.136,2.363,5.855,5.855,0,0,1-3.4.812h-3.767V10.407h1.342V2.245h-1.342V.889H317.7a5.09,5.09,0,0,1,2.951.693,2.427,2.427,0,0,1,.967,2.114m-1.624.087a1.323,1.323,0,0,0-.541-1.151,2.606,2.606,0,0,0-1.53-.386h-1.075V5.421h1.09q2.057,0,2.057-1.638m.52,4.777a1.529,1.529,0,0,0-.639-1.346,3.514,3.514,0,0,0-1.981-.444h-1.046v3.637h.649a8.858,8.858,0,0,0,1.6-.119,1.881,1.881,0,0,0,1.021-.52,1.662,1.662,0,0,0,.393-1.209" transform="translate(-250.156 -0.709)" fill="#fff"/>
        <path id="Path_99" data-name="Path 99" d="M382.878,5.585a5.879,5.879,0,0,1-.732,2.951,5.078,5.078,0,0,1-2.024,2,6.039,6.039,0,0,1-2.937.7A5.648,5.648,0,0,1,374.3,10.5a5.129,5.129,0,0,1-1.966-2.028,6.017,6.017,0,0,1-.7-2.919,5.709,5.709,0,0,1,.718-2.872A5.137,5.137,0,0,1,374.327.711,5.754,5.754,0,0,1,377.2,0a5.906,5.906,0,0,1,2.966.732,5.169,5.169,0,0,1,2,2,5.736,5.736,0,0,1,.711,2.85m-5.629,4.2a3.533,3.533,0,0,0,2-.584,3.916,3.916,0,0,0,1.36-1.552,4.58,4.58,0,0,0,.48-2.064,4.347,4.347,0,0,0-.509-2.074A3.874,3.874,0,0,0,379.176,2a3.769,3.769,0,0,0-2.02-.552,3.529,3.529,0,0,0-3.273,2.02,4.692,4.692,0,0,0-.465,2.1,4.951,4.951,0,0,0,.465,2.187,3.5,3.5,0,0,0,1.339,1.494,3.808,3.808,0,0,0,2.028.534" transform="translate(-296.188 0)" fill="#fff"/>
        <path id="Path_100" data-name="Path 100" d="M449.178,3.739a2.655,2.655,0,0,1-.592,1.757,3.043,3.043,0,0,1-1.653.978l1.92,3.933h1.328v1.357h-2.439l-2.4-5.066h-1.522v3.709H445.2v1.357h-4.5V10.407h1.472V2.246H440.7V.889h4.517a5.2,5.2,0,0,1,3.031.686,2.509,2.509,0,0,1,.931,2.165m-1.7-.029a1.293,1.293,0,0,0-.476-1.111,2.553,2.553,0,0,0-1.508-.354h-1.681V5.334h1.58a2.71,2.71,0,0,0,1.573-.368,1.441,1.441,0,0,0,.512-1.256" transform="translate(-351.237 -0.709)" fill="#fff"/>
        <path id="Path_101" data-name="Path 101" d="M507.405,2.2l2.944,8.2h1.212v1.357h-4.286V10.406H508.7l-.844-2.468H503.9l-.844,2.468h1.379v1.357h-4.315V10.406h1.313l2.93-8.2h-1.306V.888h5.651V2.2Zm-1.487,0h-.051l-1.537,4.46h3.088Z" transform="translate(-398.599 -0.708)" fill="#fff"/>
        <path id="Path_102" data-name="Path 102" d="M572.178,4.864V2.245h-2.244v8.161h1.414v1.357H566.9V10.406h1.385V2.245h-2.23v2.62h-1.342V.888h8.8V4.864Z" transform="translate(-450.079 -0.708)" fill="#fff"/>
        <path id="Path_103" data-name="Path 103" d="M626.323,2.245v8.161h1.184v1.357H623.5V10.407h1.176V2.245H623.5V.889h4.005V2.245Z" transform="translate(-496.931 -0.708)" fill="#fff"/>
        <path id="Path_104" data-name="Path 104" d="M669.7,5.585a5.879,5.879,0,0,1-.732,2.951,5.078,5.078,0,0,1-2.024,2,6.039,6.039,0,0,1-2.937.7,5.647,5.647,0,0,1-2.886-.732,5.127,5.127,0,0,1-1.967-2.028,6.017,6.017,0,0,1-.7-2.919,5.71,5.71,0,0,1,.718-2.872A5.137,5.137,0,0,1,661.147.711,5.754,5.754,0,0,1,664.019,0a5.906,5.906,0,0,1,2.966.732,5.169,5.169,0,0,1,2,2,5.735,5.735,0,0,1,.711,2.85m-5.629,4.2a3.533,3.533,0,0,0,2-.584,3.917,3.917,0,0,0,1.36-1.552,4.581,4.581,0,0,0,.48-2.064,4.346,4.346,0,0,0-.509-2.074A3.873,3.873,0,0,0,666,2a3.769,3.769,0,0,0-2.02-.552,3.529,3.529,0,0,0-3.273,2.02,4.692,4.692,0,0,0-.465,2.1,4.951,4.951,0,0,0,.465,2.187,3.5,3.5,0,0,0,1.339,1.494,3.807,3.807,0,0,0,2.028.534" transform="translate(-524.783 0)" fill="#fff"/>
        <path id="Path_105" data-name="Path 105" d="M736.787,2.245h-1.552V.889h4.46V2.245H738.1v9.634h-1.689l-5.217-9.294v7.822h1.559v1.357H728.3V10.407h1.552V2.245H728.3V.889h3.709l4.777,8.45Z" transform="translate(-580.456 -0.708)" fill="#fff"/>
        <path id="Path_106" data-name="Path 106" d="M835.253,2.2l2.944,8.2h1.212v1.357h-4.286V10.406h1.422L835.7,7.938h-3.947l-.844,2.468h1.378v1.357h-4.315V10.406h1.313l2.93-8.2h-1.306V.888h5.65V2.2Zm-1.487,0h-.051l-1.537,4.46h3.088Z" transform="translate(-659.894 -0.708)" fill="#fff"/>
        <path id="Path_107" data-name="Path 107" d="M904.833,3.739a2.655,2.655,0,0,1-.592,1.757,3.042,3.042,0,0,1-1.653.978l1.92,3.933h1.328v1.357H903.4l-2.4-5.066h-1.523v3.709h1.385v1.357h-4.5V10.407h1.472V2.246h-1.472V.889h4.517a5.2,5.2,0,0,1,3.031.686,2.509,2.509,0,0,1,.931,2.165m-1.7-.029a1.293,1.293,0,0,0-.476-1.111,2.552,2.552,0,0,0-1.508-.354h-1.681V5.334h1.58a2.711,2.711,0,0,0,1.573-.368,1.441,1.441,0,0,0,.512-1.256" transform="translate(-714.394 -0.709)" fill="#fff"/>
        <path id="Path_108" data-name="Path 108" d="M964.094,4.864V2.245h-2.244v8.161h1.414v1.357h-4.445V10.406H960.2V2.245h-2.23v2.62h-1.342V.888h8.8V4.864Z" transform="translate(-762.436 -0.708)" fill="#fff"/>
      </g>
    </g>
  </g>
</svg>
